<?xml version="1.0" encoding="utf-8"?>
<!-- Generator: Adobe Illustrator 25.4.1, SVG Export Plug-In . SVG Version: 6.00 Build 0)  -->
<svg version="1.1" id="Layer_1" xmlns="http://www.w3.org/2000/svg" xmlns:xlink="http://www.w3.org/1999/xlink" x="0px" y="0px"
	 viewBox="0 0 792.5 358.9" style="enable-background:new 0 0 792.5 358.9;" xml:space="preserve">
<style type="text/css">
	.st0{fill:#FFFFFF;}
</style>
<g>
	<g>
		<path class="st0" d="M375.7,305.9l0.7-27.1h2.5l5.3,23.5l5.4-23.5h2.5l0.7,27.1h-2.1l-0.5-21.6l-5.2,21.6h-1.6l-5.1-21.5
			l-0.5,21.5H375.7z"/>
		<path class="st0" d="M400.8,305.9v-27.1h2.5v27.1H400.8z"/>
		<path class="st0" d="M411.5,305.9v-27.1h1.8l8.6,21v-21h2.2v27.1h-1.8l-8.7-21.3v21.3H411.5z"/>
		<path class="st0" d="M432.3,305.9v-27.1h2.5v27.1H432.3z"/>
		<path class="st0" d="M443,305.9v-27.1h1.8l8.6,21v-21h2.2v27.1h-1.8l-8.7-21.3v21.3H443z"/>
		<path class="st0" d="M469.8,306.3c-1.7,0-3.1-0.4-4-1.1c-1-0.7-1.7-1.7-2.1-3c-0.4-1.3-0.6-2.8-0.6-4.5v-10.6
			c0-1.7,0.2-3.2,0.6-4.5c0.4-1.3,1.1-2.3,2.1-3c1-0.7,2.4-1.1,4.2-1.1c1.6,0,2.9,0.3,3.9,0.9c0.9,0.6,1.6,1.5,2.1,2.6
			c0.4,1.2,0.6,2.6,0.6,4.2v0.9h-2.4v-0.9c0-1.3-0.1-2.4-0.4-3.2c-0.2-0.8-0.6-1.5-1.2-1.9c-0.6-0.4-1.4-0.6-2.5-0.6
			c-1.2,0-2.2,0.3-2.8,0.8s-1,1.3-1.2,2.2c-0.2,0.9-0.3,2-0.3,3.2V298c0,1.3,0.1,2.4,0.4,3.4c0.2,0.9,0.7,1.6,1.3,2.1
			c0.6,0.5,1.5,0.8,2.7,0.8c1.1,0,2-0.3,2.6-0.8c0.6-0.5,1-1.2,1.3-2.2c0.2-0.9,0.4-2.1,0.4-3.4v-3.2h-4v-1.9h6.4v13.1H475l-0.3-3.1
			c-0.3,1-0.9,1.9-1.7,2.5C472.3,306,471.2,306.3,469.8,306.3z"/>
		<path class="st0" d="M500.3,306.3c-1.4,0-2.5-0.3-3.5-0.8c-0.9-0.6-1.6-1.3-2.1-2.2s-0.7-2-0.7-3.1c0-1.4,0.4-2.8,1.1-4
			c0.7-1.3,1.8-2.6,3.3-4c-0.6-1.1-1.2-2-1.7-2.9c-0.5-0.8-0.9-1.7-1.1-2.4c-0.3-0.8-0.4-1.6-0.4-2.4c0-1.2,0.2-2.2,0.7-3.1
			s1.1-1.5,2-2s1.9-0.7,3.1-0.7c1.1,0,2.1,0.2,2.9,0.6c0.8,0.4,1.5,0.9,1.9,1.7c0.5,0.7,0.7,1.6,0.7,2.6c0,1-0.3,2-0.8,3
			c-0.5,1-1.2,2-2,2.9c-0.8,1-1.8,1.9-2.8,2.9l5.2,8.2c0.4-0.6,0.8-1.2,1.1-2c0.3-0.8,0.5-1.6,0.7-2.4c0.2-0.8,0.3-1.5,0.3-2.2h2.4
			c0,0.8-0.1,1.7-0.4,2.7c-0.3,1-0.6,2-1.1,2.9c-0.5,1-1,1.8-1.6,2.5c0.5,0.6,1,1.1,1.5,1.3c0.5,0.3,1,0.4,1.6,0.4v2.4
			c-0.1,0-0.2,0-0.3,0c-0.1,0-0.2,0-0.3,0c-0.5,0-1-0.2-1.5-0.4c-0.5-0.2-0.9-0.5-1.3-0.9c-0.4-0.4-0.8-0.8-1.1-1.2
			c-0.6,0.7-1.4,1.3-2.4,1.9C502.7,306,501.6,306.3,500.3,306.3z M500.3,304.2c0.9,0,1.7-0.2,2.4-0.6c0.7-0.4,1.3-0.9,2-1.6
			l-5.3-8.2c-1,1.2-1.8,2.2-2.2,3.3c-0.4,1-0.7,2-0.7,3.1c0,0.6,0.1,1.3,0.4,1.9c0.2,0.6,0.6,1.2,1.2,1.6
			C498.6,304,499.4,304.2,500.3,304.2z M500,290.8c0.7-0.7,1.4-1.5,2-2.3c0.6-0.8,1.1-1.7,1.5-2.5c0.4-0.9,0.6-1.8,0.6-2.6
			c0-0.9-0.3-1.6-0.9-2c-0.6-0.5-1.3-0.7-2.3-0.7c-1.1,0-2,0.4-2.5,1.1c-0.5,0.7-0.8,1.6-0.8,2.6c0,1,0.2,2,0.6,3.1
			C498.7,288.3,499.3,289.5,500,290.8z"/>
		<path class="st0" d="M531.6,305.9v-25.1h-5.1v-2h12.6v2h-5v25.1H531.6z"/>
		<path class="st0" d="M545.4,305.9v-27.1h6.1c1.7,0,3,0.3,4,0.8c1,0.5,1.7,1.3,2.1,2.4c0.4,1,0.6,2.3,0.6,3.7c0,1-0.1,2-0.3,2.8
			c-0.2,0.9-0.6,1.6-1.1,2.3c-0.5,0.6-1.3,1-2.3,1.2l4.1,13.8h-2.5l-4-13.3H548v13.3H545.4z M548,290.7h3.4c1.1,0,2-0.2,2.6-0.6
			c0.6-0.4,1.1-0.9,1.3-1.7c0.3-0.7,0.4-1.7,0.4-2.8c0-1.7-0.3-2.9-0.9-3.7c-0.6-0.8-1.7-1.2-3.4-1.2H548V290.7z"/>
		<path class="st0" d="M564.4,305.9l5.7-27.1h2.7l5.7,27.1h-2.5l-1.3-7.3h-6.4l-1.4,7.3H564.4z M568.6,296.8h5.7l-2.9-14.6
			L568.6,296.8z"/>
		<path class="st0" d="M585.2,305.9v-27.1h5.9c1.9,0,3.4,0.3,4.4,1c1.1,0.7,1.8,1.6,2.3,2.8c0.4,1.2,0.7,2.6,0.7,4.2v10.8
			c0,1.7-0.2,3.1-0.7,4.4c-0.4,1.3-1.2,2.2-2.2,2.9c-1,0.7-2.4,1-4.2,1H585.2z M587.7,304h3.4c1.4,0,2.5-0.3,3.1-0.9
			c0.7-0.6,1.1-1.4,1.3-2.4c0.2-1,0.3-2.2,0.3-3.5v-10.1c0-1.4-0.1-2.5-0.4-3.4c-0.2-0.9-0.7-1.6-1.4-2.1c-0.7-0.5-1.7-0.7-3.1-0.7
			h-3.3V304z"/>
		<path class="st0" d="M606,305.9v-27.1h2.5v27.1H606z"/>
		<path class="st0" d="M616.7,305.9v-27.1h1.8l8.6,21v-21h2.2v27.1h-1.8l-8.7-21.3v21.3H616.7z"/>
		<path class="st0" d="M643.5,306.3c-1.7,0-3.1-0.4-4-1.1c-1-0.7-1.7-1.7-2.1-3c-0.4-1.3-0.6-2.8-0.6-4.5v-10.6
			c0-1.7,0.2-3.2,0.6-4.5c0.4-1.3,1.1-2.3,2.1-3c1-0.7,2.4-1.1,4.2-1.1c1.6,0,2.9,0.3,3.9,0.9c0.9,0.6,1.6,1.5,2.1,2.6
			c0.4,1.2,0.6,2.6,0.6,4.2v0.9h-2.4v-0.9c0-1.3-0.1-2.4-0.4-3.2c-0.2-0.8-0.6-1.5-1.2-1.9c-0.6-0.4-1.4-0.6-2.5-0.6
			c-1.2,0-2.2,0.3-2.8,0.8c-0.6,0.5-1,1.3-1.2,2.2c-0.2,0.9-0.3,2-0.3,3.2V298c0,1.3,0.1,2.4,0.4,3.4c0.2,0.9,0.7,1.6,1.3,2.1
			c0.6,0.5,1.5,0.8,2.7,0.8c1.1,0,2-0.3,2.6-0.8c0.6-0.5,1-1.2,1.3-2.2c0.2-0.9,0.4-2.1,0.4-3.4v-3.2h-4v-1.9h6.4v13.1h-1.6
			l-0.3-3.1c-0.3,1-0.9,1.9-1.7,2.5S644.9,306.3,643.5,306.3z"/>
		<path class="st0" d="M674,306.3c-1.5,0-2.7-0.3-3.7-0.9c-1-0.6-1.7-1.5-2.2-2.6c-0.5-1.1-0.8-2.4-0.9-3.9l2.2-0.7
			c0.1,1.1,0.3,2.1,0.6,3s0.7,1.6,1.4,2.1c0.6,0.5,1.5,0.8,2.6,0.8c1.2,0,2.1-0.3,2.8-0.9c0.7-0.6,1-1.6,1-3c0-1.2-0.3-2.2-0.9-3.1
			c-0.6-0.9-1.4-1.8-2.4-2.7l-4.8-4.6c-0.8-0.8-1.5-1.7-1.9-2.6c-0.4-0.9-0.6-1.8-0.6-2.9c0-1.9,0.6-3.3,1.7-4.3
			c1.1-1,2.6-1.5,4.4-1.5c1,0,1.8,0.1,2.6,0.4c0.8,0.2,1.4,0.6,2,1.2c0.5,0.5,1,1.3,1.3,2.1c0.3,0.9,0.5,1.9,0.6,3.2l-2.2,0.6
			c-0.1-1.1-0.3-2.1-0.6-2.9c-0.3-0.8-0.7-1.4-1.3-1.9c-0.6-0.4-1.4-0.6-2.5-0.6c-1.1,0-2,0.3-2.7,0.9c-0.7,0.6-1.1,1.5-1.1,2.7
			c0,0.7,0.1,1.4,0.4,2c0.3,0.6,0.8,1.2,1.5,1.9l4.8,4.5c1.1,1,2,2.1,2.8,3.3c0.8,1.2,1.2,2.6,1.2,4.1c0,1.4-0.3,2.5-0.8,3.4
			c-0.5,0.9-1.3,1.6-2.2,2.1C676.3,306,675.2,306.3,674,306.3z"/>
		<path class="st0" d="M686.6,305.9v-3.7h2.6v3.7H686.6z"/>
		<path class="st0" d="M694.9,305.9l5.7-27.1h2.7l5.7,27.1h-2.5l-1.3-7.3h-6.4l-1.4,7.3H694.9z M699.1,296.8h5.7l-2.9-14.6
			L699.1,296.8z"/>
		<path class="st0" d="M715.3,305.9v-3.7h2.6v3.7H715.3z"/>
		<path class="st0" d="M730.8,306.3c-1.5,0-2.7-0.3-3.7-0.9c-1-0.6-1.7-1.5-2.2-2.6c-0.5-1.1-0.8-2.4-0.9-3.9l2.2-0.7
			c0.1,1.1,0.3,2.1,0.6,3s0.7,1.6,1.4,2.1c0.6,0.5,1.5,0.8,2.6,0.8c1.2,0,2.1-0.3,2.8-0.9c0.7-0.6,1-1.6,1-3c0-1.2-0.3-2.2-0.9-3.1
			c-0.6-0.9-1.4-1.8-2.4-2.7l-4.8-4.6c-0.8-0.8-1.5-1.7-1.9-2.6c-0.4-0.9-0.6-1.8-0.6-2.9c0-1.9,0.6-3.3,1.7-4.3
			c1.1-1,2.6-1.5,4.4-1.5c1,0,1.8,0.1,2.6,0.4c0.8,0.2,1.4,0.6,2,1.2c0.5,0.5,1,1.3,1.3,2.1c0.3,0.9,0.5,1.9,0.6,3.2l-2.2,0.6
			c-0.1-1.1-0.3-2.1-0.6-2.9c-0.3-0.8-0.7-1.4-1.3-1.9c-0.6-0.4-1.4-0.6-2.5-0.6c-1.1,0-2,0.3-2.7,0.9c-0.7,0.6-1.1,1.5-1.1,2.7
			c0,0.7,0.1,1.4,0.4,2c0.3,0.6,0.8,1.2,1.5,1.9l4.8,4.5c1.1,1,2,2.1,2.8,3.3c0.8,1.2,1.2,2.6,1.2,4.1c0,1.4-0.3,2.5-0.8,3.4
			c-0.5,0.9-1.3,1.6-2.2,2.1C733.1,306,732,306.3,730.8,306.3z"/>
		<path class="st0" d="M743.4,305.9v-3.7h2.6v3.7H743.4z"/>
	</g>
	<path class="st0" d="M265.8,53.1l-146,0.4l0.4-0.2L47.4,179.8V179l73.3,126.4l-0.9-0.5c24.3-0.1,48.7-0.3,73-0.2l73,0l-1.1,0.6
		l36.5-63.2l36.8-63.1l0,1l-36.1-63.3C289.8,95.6,277.8,74.3,265.8,53.1z M265.9,52.8c12.3,20.9,24.7,41.8,36.9,62.9l36.9,63.2
		l0.3,0.5l-0.3,0.5l-36.2,63.4l-36.5,63.2l-0.4,0.6l-0.7,0l-73,0c-24.3,0-48.7-0.2-73-0.2l-0.6,0l-0.3-0.5L46.1,179.8l-0.2-0.4
		l0.2-0.4l73.3-126.3l0.1-0.2l0.3,0L265.9,52.8z"/>
	<polygon class="st0" points="46.2,176.9 305.1,121 47.3,182 	"/>
	<polygon class="st0" points="117.9,304.1 305.1,121 121.6,307.8 	"/>
	<polygon class="st0" points="263.6,307.2 119.8,53 268.1,304.6 	"/>
	<polygon class="st0" points="80.4,240 212.4,53 84.7,243 	"/>
	<polygon class="st0" points="304.6,236.7 46.7,179.4 305.7,231.6 	"/>
	<circle class="st0" cx="47.8" cy="179.5" r="6.1"/>
	<circle class="st0" cx="47.8" cy="179.5" r="6.1"/>
	<circle class="st0" cx="113.7" cy="193.9" r="6.1"/>
	<circle class="st0" cx="175.9" cy="150.2" r="6.1"/>
	<circle class="st0" cx="212.4" cy="53" r="6.1"/>
	<circle class="st0" cx="265.8" cy="305.9" r="6.1"/>
	<circle class="st0" cx="212.4" cy="213.5" r="6.1"/>
	<circle class="st0" cx="305.1" cy="121" r="6.1"/>
	<circle class="st0" cx="160.9" cy="127.1" r="6.1"/>
	<circle class="st0" cx="119.8" cy="53" r="6.1"/>
	<circle class="st0" cx="82.6" cy="241.5" r="6.1"/>
	<circle class="st0" cx="119.8" cy="305.9" r="6.1"/>
	<circle class="st0" cx="305.1" cy="235.4" r="6.1"/>
	<g>
		<path class="st0" d="M408.3,261.7c-7.6,0-13.9-1.5-18.9-4.4c-5.1-3-8.9-7.3-11.5-13c-2.6-5.7-4-12.7-4.3-21l19.7-3.9
			c0.2,4.9,0.8,9.2,1.8,12.9c1,3.7,2.5,6.6,4.5,8.6c2,2,4.7,3,8,3c3.7,0,6.4-1.1,7.9-3.3c1.6-2.2,2.3-5,2.3-8.5
			c0-5.5-1.2-10-3.7-13.5c-2.5-3.5-5.8-7-9.9-10.6l-15.8-14c-4.5-3.8-8-8.1-10.6-12.8c-2.6-4.7-4-10.5-4-17.5c0-9.9,2.9-17.6,8.7-23
			c5.8-5.4,13.7-8.1,23.8-8.1c5.9,0,10.8,0.9,14.8,2.7c3.9,1.8,7.1,4.3,9.4,7.5c2.3,3.2,4.1,6.9,5.2,10.9c1.1,4.1,1.9,8.4,2.2,13
			l-19.6,3.4c-0.2-3.9-0.6-7.5-1.3-10.6c-0.7-3.1-1.9-5.5-3.6-7.3c-1.7-1.8-4.2-2.6-7.5-2.6c-3.4,0-6,1.1-7.8,3.3
			c-1.8,2.2-2.7,5-2.7,8.3c0,4.2,0.9,7.7,2.6,10.5c1.8,2.7,4.3,5.6,7.6,8.5l15.7,13.8c5.2,4.3,9.6,9.4,13.3,15.3
			c3.7,5.9,5.5,12.9,5.5,21.2c0,6-1.3,11.3-4,16c-2.6,4.7-6.3,8.3-11,10.9C420.2,260.4,414.6,261.7,408.3,261.7z"/>
		<path class="st0" d="M464.4,260V134.2h22.7V260H464.4z"/>
		<path class="st0" d="M537.4,260l-25.3-125.8h20.3l16.6,89l15.5-89h20.8L560.1,260H537.4z"/>
		<path class="st0" d="M598.9,260l25.2-125.8h24.5L673.8,260h-21.3l-5-29h-21.9l-5.1,29H598.9z M627.9,216.4H645l-8.5-52.8
			L627.9,216.4z"/>
		<path class="st0" d="M697.4,260V134.2h23v110h30.4V260H697.4z"/>
	</g>
	<g>
		<path class="st0" d="M391.6,108.5c-3.2,0-5.7-0.7-7.6-2c-1.8-1.3-3.1-3.2-3.9-5.7c-0.8-2.4-1.1-5.3-1.1-8.5V72.4
			c0-3.3,0.4-6.1,1.1-8.5c0.7-2.4,2-4.2,3.9-5.6c1.9-1.3,4.5-2,7.9-2c3.1,0,5.5,0.6,7.3,1.7s3.1,2.8,3.9,5c0.8,2.2,1.2,4.8,1.2,8
			v1.8h-4.5v-1.8c0-2.4-0.2-4.4-0.7-6c-0.4-1.6-1.2-2.8-2.3-3.6c-1.1-0.8-2.7-1.2-4.8-1.2c-2.3,0-4.1,0.5-5.3,1.5
			c-1.2,1-1.9,2.4-2.3,4.1c-0.4,1.8-0.5,3.8-0.5,6v20.9c0,2.5,0.2,4.6,0.7,6.3c0.4,1.7,1.3,3.1,2.4,4c1.2,0.9,2.9,1.4,5.1,1.4
			c2.1,0,3.8-0.5,4.9-1.4s1.9-2.3,2.4-4.1c0.5-1.8,0.7-3.9,0.7-6.4v-6h-7.5v-3.6h11.9v24.6h-3.1l-0.6-5.8c-0.6,1.9-1.7,3.5-3.1,4.7
			C396.2,107.9,394.2,108.5,391.6,108.5z"/>
		<path class="st0" d="M425.3,107.8V56.9h11.5c3.2,0,5.7,0.5,7.5,1.5c1.8,1,3.1,2.5,3.9,4.5c0.8,1.9,1.2,4.3,1.2,6.9
			c0,1.9-0.2,3.7-0.6,5.3c-0.4,1.7-1.1,3.1-2.1,4.3c-1,1.2-2.4,1.9-4.3,2.3l7.8,26h-4.6l-7.5-25h-8v25H425.3z M430.1,79.3h6.5
			c2.1,0,3.8-0.4,5-1.1c1.2-0.7,2-1.8,2.5-3.1s0.8-3.1,0.8-5.2c0-3.1-0.5-5.5-1.6-7c-1.1-1.5-3.2-2.3-6.5-2.3h-6.6V79.3z"/>
		<path class="st0" d="M482.5,108.4c-3.4,0-6.1-0.6-8-1.9c-1.9-1.2-3.2-3-3.9-5.2c-0.7-2.2-1.1-4.7-1.1-7.5v-37h4.6V94
			c0,2,0.2,3.8,0.7,5.4c0.4,1.6,1.3,2.9,2.5,3.8c1.2,0.9,3,1.4,5.2,1.4c2.2,0,3.9-0.5,5.1-1.4c1.2-0.9,2.1-2.2,2.5-3.8
			c0.5-1.6,0.7-3.4,0.7-5.3V56.9h4.6v37c0,2.8-0.4,5.3-1.1,7.5c-0.8,2.2-2.1,3.9-4,5.2C488.4,107.8,485.8,108.4,482.5,108.4z"/>
		<path class="st0" d="M516.3,107.8V56.9h12.2c3.1,0,5.5,0.6,7.2,1.7c1.8,1.1,3,2.7,3.7,4.7c0.7,2,1.1,4.4,1.1,7.1
			c0,2.4-0.4,4.6-1.2,6.6c-0.8,2-2.1,3.7-3.8,4.9c-1.8,1.2-4.1,1.8-7,1.8h-7.5v24.1H516.3z M521.1,80.2h6.1c2.1,0,3.7-0.3,5-0.9
			c1.3-0.6,2.2-1.6,2.8-3c0.6-1.4,0.9-3.3,0.9-5.8c0-2.6-0.3-4.6-0.8-6.1c-0.5-1.4-1.4-2.4-2.6-3c-1.2-0.6-3-0.8-5.2-0.8h-6.2V80.2z
			"/>
		<path class="st0" d="M571.3,108.4c-3.4,0-6-0.7-7.9-2c-1.9-1.3-3.2-3.2-4-5.5c-0.8-2.4-1.2-5.1-1.2-8.1V71.7
			c0-3.1,0.4-5.8,1.2-8.1c0.8-2.3,2.2-4.1,4.1-5.3s4.5-1.9,7.8-1.9c3.3,0,5.9,0.6,7.8,1.9s3.3,3,4.1,5.3c0.8,2.3,1.2,5,1.2,8.1v21.2
			c0,3.1-0.4,5.7-1.2,8.1c-0.8,2.3-2.1,4.2-4,5.5C577.2,107.8,574.6,108.4,571.3,108.4z M571.3,104.6c2.2,0,3.9-0.4,5.1-1.4
			c1.2-0.9,2-2.2,2.4-3.8c0.4-1.6,0.7-3.5,0.7-5.6V70.8c0-2.1-0.2-4-0.7-5.6c-0.4-1.6-1.2-2.8-2.4-3.7c-1.2-0.9-2.9-1.3-5.1-1.3
			c-2.3,0-4,0.4-5.2,1.3c-1.2,0.9-2,2.1-2.4,3.7c-0.4,1.6-0.7,3.5-0.7,5.6v23.1c0,2.1,0.2,4,0.7,5.6c0.4,1.6,1.3,2.9,2.4,3.8
			C567.3,104.1,569,104.6,571.3,104.6z"/>
	</g>
</g>
</svg>
