<?xml version="1.0" encoding="utf-8"?>
<!-- Generator: Adobe Illustrator 25.4.1, SVG Export Plug-In . SVG Version: 6.00 Build 0)  -->
<svg version="1.1" id="Layer_1" xmlns="http://www.w3.org/2000/svg" xmlns:xlink="http://www.w3.org/1999/xlink" x="0px" y="0px"
	 viewBox="0 0 722.2 358.9" style="enable-background:new 0 0 722.2 358.9;" xml:space="preserve">
<style type="text/css">
	.st0{fill:#231F20;}
	.st1{font-family:'Oswald-Light';}
	.st2{font-size:30.72px;}
	.st3{letter-spacing:3;}
	.st4{fill:#1A3865;}
	.st5{font-family:'Oswald-Medium';}
	.st6{font-size:142.7472px;}
	.st7{letter-spacing:10;}
	.st8{font-size:57.7319px;}
	.st9{letter-spacing:11;}
	.st10{font-family:'Helvetica-Light';}
	.st11{font-size:27.5682px;}
	.st12{fill:none;stroke:#1A3865;stroke-miterlimit:10;}
</style>
<g>
	<g>
		<text transform="matrix(1 0 0 1 333.9902 258.7266)" class="st0 st1 st2 st3">MINING &amp; TRADING S.A.S.</text>
		<path class="st4" d="M234.9,26.3l-134.2,0.3l0.4-0.2L34.3,142.8v-0.7l67.3,116.1l-0.8-0.5c22.4-0.1,44.7-0.3,67.1-0.2l67.1,0
			l-1,0.6l33.6-58.1l33.8-58v0.9l-33.2-58.1C257,65.4,246,45.8,234.9,26.3z M235.1,26.1c11.3,19.2,22.7,38.4,33.9,57.8l33.9,58.1
			l0.3,0.5l-0.3,0.5l-33.3,58.3L236,259.3l-0.3,0.6l-0.7,0l-67.1,0c-22.4,0-44.7-0.2-67.1-0.2l-0.6,0l-0.3-0.5L33,142.8l-0.2-0.4
			l0.2-0.4L100.4,26l0.1-0.2l0.3,0L235.1,26.1z"/>
		<polygon class="st4" points="33.1,140.1 271.1,88.8 34.2,144.8 		"/>
		<polygon class="st4" points="99.1,257 271.1,88.8 102.5,260.4 		"/>
		<polygon class="st4" points="232.9,259.9 100.8,26.2 237.1,257.5 		"/>
		<polygon class="st4" points="64.6,198.1 185.9,26.2 68.5,200.9 		"/>
		<polygon class="st4" points="270.6,195.1 33.6,142.5 271.6,190.4 		"/>
		<circle class="st4" cx="34.6" cy="142.6" r="5.6"/>
		<circle class="st4" cx="34.6" cy="142.6" r="5.6"/>
		<circle class="st4" cx="95.2" cy="155.8" r="5.6"/>
		<circle class="st4" cx="152.4" cy="115.6" r="5.6"/>
		<circle class="st4" cx="185.9" cy="26.2" r="5.6"/>
		<circle class="st4" cx="235" cy="258.7" r="5.6"/>
		<circle class="st4" cx="185.9" cy="173.8" r="5.6"/>
		<circle class="st4" cx="271.1" cy="88.8" r="5.6"/>
		<circle class="st4" cx="138.6" cy="94.4" r="5.6"/>
		<circle class="st4" cx="100.8" cy="26.2" r="5.6"/>
		<circle class="st4" cx="66.6" cy="199.5" r="5.6"/>
		<circle class="st4" cx="100.8" cy="258.7" r="5.6"/>
		<circle class="st4" cx="271.1" cy="193.9" r="5.6"/>
		<text transform="matrix(1 0 0 1 328.1396 216.5489)" class="st4 st5 st6 st7">SIVAL</text>
		<text transform="matrix(1 0 0 1 335.956 76.6368)" class="st0 st1 st8 st9">GRUPO</text>
	</g>
	<text transform="matrix(1 0 0 1 33.6445 328.4366)" class="st4 st10 st11">Ci Sival Mining &amp; Trading S.A.S // NIT: 901.447.559-2</text>
	<line class="st12" x1="35.5" y1="297.4" x2="680.7" y2="297.4"/>
</g>
</svg>
