<?xml version="1.0" encoding="utf-8"?>
<!-- Generator: Adobe Illustrator 25.4.1, SVG Export Plug-In . SVG Version: 6.00 Build 0)  -->
<svg version="1.1" id="Layer_1" xmlns="http://www.w3.org/2000/svg" xmlns:xlink="http://www.w3.org/1999/xlink" x="0px" y="0px"
	 viewBox="0 0 224.1 224.1" style="enable-background:new 0 0 224.1 224.1;" xml:space="preserve">
<style type="text/css">
	.st0{fill:#3FB549;}
	.st1{fill:none;}
	.st2{fill:#FFFFFF;}
</style>
<g>
	<g>
		<g>
			<path class="st0" d="M112.1,224.1c-19.6,0-38.9-5.2-55.9-15l-43.7,15l9-46.2C7.4,158.6,0,135.9,0,112.1C0,50.3,50.3,0,112.1,0
				c61.8,0,112.1,50.3,112.1,112.1C224.1,173.8,173.9,224.1,112.1,224.1z"/>
		</g>
	</g>
	<g>
		<g>
			<path class="st1" d="M112.1,44.3c-37.4,0-67.8,30.3-67.8,67.8c0,15.7,5.4,30.2,14.4,41.7L54.2,177l22-7.6
				c10.4,6.5,22.7,10.4,35.9,10.4c37.4,0,67.8-30.3,67.8-67.8C179.8,74.6,149.5,44.3,112.1,44.3z"/>
			<path class="st2" d="M112.1,185.3c-12.8,0-25.4-3.4-36.5-9.8L47,185.3l5.9-30.2c-9.2-12.6-14-27.4-14-43
				c0-40.4,32.8-73.2,73.2-73.2c40.4,0,73.2,32.8,73.2,73.2C185.3,152.4,152.4,185.3,112.1,185.3z M76.9,163.5l2.2,1.4
				c9.9,6.2,21.4,9.5,33,9.5c34.4,0,62.3-28,62.3-62.3c0-34.4-28-62.3-62.3-62.3c-34.4,0-62.3,28-62.3,62.3c0,14,4.6,27.2,13.2,38.3
				l1.5,2l-3.2,16.5L76.9,163.5z"/>
		</g>
		<path class="st2" d="M75.1,83.9c0,0,4.3-7.5,7.8-7.9c3.5-0.4,8-0.4,9.2,1.9c1.2,2.3,6.6,15.6,6.6,15.6s0.9,2.3-0.5,4.5
			c-1.4,2.2-4.6,5.4-4.6,5.4s-1.8,2.3,0,4.7c1.8,2.4,4.6,6.9,10.3,12.6c5.7,5.7,16.7,9.8,16.7,9.8s1.6,0.2,2.6-0.8
			c1-1,6.4-7.8,6.4-7.8s1.7-2.3,4.6-0.9c2.9,1.3,15.4,7.6,15.4,7.6s1.5,0.5,1.5,2.8c0,2.2-0.9,7.6-2.7,9.5
			c-1.8,1.8-7.2,7.5-15.3,7.5c-8.1,0-27.2-6.6-37.5-16.8c-10.2-10.2-19.3-20.6-21.4-30C72.2,92.1,72.5,87.8,75.1,83.9z"/>
	</g>
</g>
</svg>
